<svg width="34" height="20" viewBox="0 0 34 20" fill="none" xmlns="http://www.w3.org/2000/svg">
<path d="M33.3148 3.41459C33.2812 2.85436 33.1168 2.3098 32.8348 1.82459C32.5848 1.32459 32.1397 0.934587 31.6197 0.734588C31.0895 0.470307 30.502 0.341472 29.9097 0.359588H7.71973L6.12973 5.12458H26.2347L23.0597 14.8646H2.95973L1.36973 19.6296H23.6647C24.3291 19.6103 24.9859 19.4837 25.6097 19.2546C26.2347 18.8996 26.9497 18.5396 27.5547 18.0396C28.1454 17.5739 28.6791 17.0402 29.1447 16.4496C29.5297 15.8708 29.8579 15.2563 30.1247 14.6146L33.0697 5.35458C33.3377 4.74532 33.4228 4.07133 33.3148 3.41459Z" fill="white"/>
<path d="M14.0548 7.78528H2.22476L0.634766 12.1903H12.5848L14.0548 7.78528Z" fill="white"/>
</svg>
